<svg enable-background="new 0 0 116.342 36.404" height="36.404" viewBox="0 0 116.342 36.404" width="116.342" xmlns="http://www.w3.org/2000/svg"><g fill="#fff"><path d="m14.464 13.337s-4.659-.602-6.838-.602-2.63.488-2.63 1.502c0 .864.714 1.053 4.17 1.691 4.358.789 5.898 2.066 5.898 5.861 0 4.396-2.855 6.086-7.551 6.086-2.78 0-7.213-.902-7.213-.902l.15-4.208s4.659.602 6.575.602c2.405 0 3.043-.488 3.043-1.466 0-.826-.414-1.201-3.87-1.766-4.056-.674-6.198-1.651-6.198-5.783 0-4.357 3.306-6.124 7.251-6.124 2.705 0 7.289.939 7.289.939z"/><path d="m17.996 1.127h5.035v5.109h-5.035zm0 7.514h5.035v18.785h-5.035z"/><path d="m32.67 12.924v7.702c0 1.878 0 2.742 1.578 2.742 1.052 0 2.855-.075 2.855-.075l.226 4.02s-2.517.564-3.832.564c-4.546 0-5.861-1.729-5.861-7.139v-7.813h-2.216v-4.284h2.216v-5.222h5.034v5.222h4.621v4.283z"/><path d="m54.671 23.105.075 3.719s-4.32 1.053-7.814 1.053c-5.673 0-8.077-2.818-8.077-9.581 0-6.688 2.817-10.106 8.303-10.106 5.523 0 8.19 2.817 8.19 8.49l-.376 3.494h-11.045c.038 2.254 1.089 3.269 3.794 3.269 3.081 0 6.95-.338 6.95-.338zm-4.282-6.762c0-3.043-.864-4.021-3.231-4.021-2.405 0-3.231 1.164-3.269 4.021z"/><path d="m58.59 0h1.315v27.426h-1.315z"/><path d="m79.521 17.695c0 7.553-1.429 10.069-7.627 10.069-6.199 0-7.627-2.517-7.627-10.069 0-6.949 2.066-9.392 7.627-9.392s7.627 2.442 7.627 9.392zm-1.391 0c0-6.312-1.428-8.189-6.236-8.189-4.81 0-6.236 1.878-6.236 8.189 0 6.462.676 8.866 6.236 8.866 5.56.001 6.236-2.405 6.236-8.866z"/><path d="m82.999 30.432c0-2.479 1.165-3.344 3.193-4.809-.602-.375-.827-1.277-.827-2.442 0-.563 1.127-2.931 1.127-2.931-1.729-.563-3.231-2.104-3.231-5.71 0-4.472 2.405-6.274 6.426-6.274 2.027 0 3.981.489 3.981.489l5.259-.113v1.315h-4.057c.939.863 1.503 1.99 1.503 4.583 0 4.621-2.218 6.162-6.838 6.162-.302 0-1.578-.075-2.029-.15 0 0-.864 2.141-.864 2.63 0 1.841.227 2.029 5.147 2.029 4.659 0 6.649.751 6.649 5.41 0 4.058-2.403 5.785-8.002 5.785-6.235-.001-7.437-1.541-7.437-5.974zm4.17-4.133c-2.179 1.503-2.816 2.292-2.816 4.095 0 3.569.938 4.81 6.123 4.81 4.659 0 6.575-1.354 6.575-4.584 0-3.794-1.54-4.208-5.335-4.208-1.541 0-4.547-.113-4.547-.113zm7.814-11.759c0-3.757-1.391-5.072-5.334-5.072-3.531 0-5.034 1.315-5.034 5.072s1.502 4.959 5.034 4.959c3.944 0 5.334-1.203 5.334-4.959z"/><path d="m116.342 17.695c0 7.553-1.428 10.069-7.626 10.069-6.199 0-7.627-2.517-7.627-10.069 0-6.949 2.066-9.392 7.627-9.392s7.626 2.442 7.626 9.392zm-1.389 0c0-6.312-1.429-8.189-6.237-8.189s-6.236 1.878-6.236 8.189c0 6.462.676 8.866 6.236 8.866 5.56.001 6.237-2.405 6.237-8.866z"/></g><path d="m81.08 36.405-80.779-4.063h79.22c0 2.935 1.559 4.063 1.559 4.063z" fill="#9fbd2e"/></svg>